<svg t="1709994990694" class="icon" viewBox="0 0 1076 1024" version="1.1" xmlns="http://www.w3.org/2000/svg" p-id="4128" width="128" height="128"><path d="M575.988685 63.488c-29.184-7.168-58.368 10.752-65.024 39.936L340.980685 837.12c-5.12 22.016 8.192 43.52 30.208 49.152l459.776 103.936c35.84 8.192 71.168-13.824 80.384-49.152l163.328-702.976c6.656-28.672-11.264-57.856-39.936-64.512l-458.752-110.08z m-19.968 94.72c15.36-1.536 29.184 9.728 30.72 25.088 1.536 15.36-9.728 29.184-25.088 30.72-15.36 1.536-29.184-9.728-30.72-25.088-1.536-15.872 9.728-29.184 25.088-30.72z m249.856 740.352c-15.872 1.536-29.696-10.24-31.232-25.6-1.536-15.872 10.24-29.696 25.6-31.232 15.872-1.536 29.696 10.24 31.232 25.6 1.536 15.872-9.728 29.696-25.6 31.232z m40.448-325.12c-8.704 38.912-41.984 66.56-80.384 70.144-40.96 4.096-79.36-19.456-94.72-57.856-37.888 34.816-96.768 31.744-131.072-6.144-3.584-3.584-6.656-7.68-9.216-12.288-13.312-20.48-17.408-45.056-12.288-68.608 4.608-20.992 12.8-45.056 46.592-71.68 24.576-18.944 104.448-61.952 150.016-86.016 0.512 0 0.512-0.512 1.024-0.512 7.168-3.584 16.384-1.536 20.992 5.12 19.456 26.112 83.968 113.152 98.816 142.848 18.432 38.912 15.36 64 10.24 84.992z" p-id="4129" fill="#d81e06"></path><path d="M346.100685 911.872c-15.36-3.584-28.16-12.8-36.352-25.6-8.192-13.312-10.752-28.672-7.68-44.032L474.100685 85.504c3.584-16.896 14.848-30.72 29.184-38.4-31.744-18.944-72.192-22.016-107.52-4.096L61.428685 211.968l-0.512 0.512c-26.624 13.312-46.08 36.352-55.296 64.512-9.216 28.16-7.168 58.368 6.656 84.992L299.508685 931.84c18.944 37.888 57.344 60.928 99.328 60.928 17.408 0 34.816-4.096 50.176-12.288l60.928-31.744-163.84-36.864zM124.404685 359.936c-15.872 0-28.672-12.8-28.672-28.672 0-15.872 12.8-28.672 28.672-28.672 15.872 0 28.672 12.8 28.672 28.672 0 15.872-12.8 28.672-28.672 28.672z" p-id="4130" fill="#d81e06"></path></svg>
